<svg width="91" height="91" viewBox="0 0 91 91" fill="none" xmlns="http://www.w3.org/2000/svg">
<path fill-rule="evenodd" clip-rule="evenodd" d="M45.5837 0.387256C50.6091 0.369239 55.4488 1.17566 59.9743 2.67932L50.7636 11.9991C49.1034 11.7545 47.4043 11.6307 45.6759 11.6369C27.0365 11.7037 12.05 26.8678 12.2028 45.5067C12.3556 64.1459 27.5897 79.2014 46.2292 79.1346C64.8688 79.0678 79.8551 63.9039 79.7024 45.2648C79.6882 43.5364 79.5445 41.839 79.2801 40.1817L88.4908 30.8619C90.0476 35.3692 90.9111 40.1992 90.9523 45.2244C91.156 70.0763 71.174 90.2951 46.3214 90.3842C21.4687 90.4733 1.15655 70.399 0.952851 45.5471C0.749149 20.6951 20.7311 0.476355 45.5837 0.387256ZM45.7451 20.0741C46.0102 20.0731 46.2743 20.0763 46.5372 20.0834L48.0292 27.2433L43.8517 31.4701C37.034 32.4597 31.832 38.3444 31.8902 45.4362C31.9538 53.2025 38.3014 59.4756 46.0678 59.4478C53.1598 59.4224 58.9828 54.1515 59.8921 47.3225L64.0692 43.0956L71.2464 44.5031C71.2564 44.7659 71.2627 45.0299 71.2649 45.295C71.3795 59.2742 60.1396 70.6473 46.16 70.6974C32.1804 70.7475 20.7548 59.4557 20.6402 45.4765C20.5256 31.4973 31.7655 20.1242 45.7451 20.0741ZM72.6386 0.558967L74.0693 7.42469L75.7057 15.2798L83.5797 16.8238L90.462 18.1733L85.5478 23.1456L73.2743 35.5645L71.867 36.9887L69.8957 36.6021L61.5376 34.9632L48.6259 48.0278L43.2792 42.7437L56.1909 29.6791L54.4534 21.3408L54.0439 19.3743L55.4513 17.9502L67.7248 5.53123L72.6386 0.558967Z" fill="#BA0000"/>
</svg>
