<svg width="91" height="97" viewBox="0 0 91 97" fill="none" xmlns="http://www.w3.org/2000/svg">
<g clip-path="url(#clip0_78_80)">
<path fill-rule="evenodd" clip-rule="evenodd" d="M53.2279 17.3531C54.2404 12.2152 61.0681 12.1386 62.1749 17.2593L62.3178 17.9228C63.6708 24.1817 68.3525 28.9103 74.15 29.9666C79.1276 30.8735 79.166 38.5156 74.1978 39.4806C68.4112 40.6046 63.7773 45.3877 62.4874 51.662L62.3511 52.3273C61.2958 57.4606 54.4678 57.4638 53.4036 52.3381L53.2854 51.7687C51.9809 45.4851 47.3039 40.7206 41.4962 39.6624C36.5287 38.7573 36.4904 31.1304 41.4485 30.1673C47.2453 29.0413 51.8741 24.2223 53.1154 17.9239L53.2279 17.3531ZM46.526 53.3584C45.8163 49.9399 43.3062 47.4653 40.3274 46.9225C27.7301 44.6273 27.633 25.3638 40.2068 22.9213C42.1049 22.5527 43.804 21.3989 44.9603 19.7212C43.8874 18.8451 42.7518 18.0508 41.5613 17.3464C37.2417 14.7903 32.3575 13.5111 27.4159 13.6416C22.4743 13.7721 17.6554 15.3075 13.4595 18.0884C9.26354 20.8693 5.84356 24.7943 3.55455 29.456C1.26554 34.1177 0.190971 39.3462 0.442382 44.5985C0.693793 49.8508 2.26203 54.9356 4.98428 59.3249C7.38542 63.1966 10.6072 66.4026 14.3804 68.6914L14.416 75.7685C14.4239 77.3312 15.0149 78.8263 16.0591 79.9256C17.1033 81.0244 18.5152 81.6372 19.984 81.6286L36.5991 81.5315C38.068 81.5229 39.4735 80.8936 40.5067 79.7826C41.5398 78.6711 42.1157 77.1693 42.1079 75.6066L42.0723 68.5346C45.3047 66.5347 48.1198 63.8572 50.3474 60.6676C48.5938 59.0784 47.247 56.8315 46.6442 53.9279L46.526 53.3584ZM18.6287 87.346C16.3346 87.3594 14.4848 89.349 14.4971 91.7897C14.5094 94.2303 16.379 96.1982 18.6731 96.1847L38.0574 96.0714C40.3514 96.058 42.2012 94.0684 42.189 91.6277C42.1767 89.187 40.307 87.2192 38.013 87.2326L18.6287 87.346Z" fill="#BA0000"/>
</g>
<defs>
<clipPath id="clip0_78_80">
<rect width="90.0002" height="95.7546" fill="white" transform="matrix(0.999983 -0.00584836 0.00502447 0.999987 0.192261 0.536865)"/>
</clipPath>
</defs>
</svg>
