<svg width="37" height="37" viewBox="0 0 37 37" fill="none" xmlns="http://www.w3.org/2000/svg">
<path d="M26.309 3.30381L11.3237 3.38453C7.18562 3.40683 3.84924 6.75857 3.87167 10.8709L3.95291 25.7628C3.97534 29.8751 7.34809 33.1907 11.4862 33.1684L26.4714 33.0877C30.6095 33.0654 33.9459 29.7137 33.9234 25.6014L33.8422 10.7094C33.8198 6.59712 30.447 3.28152 26.309 3.30381Z" stroke="#002877" stroke-width="3" stroke-linecap="round" stroke-linejoin="round"/>
<path d="M24.8867 17.2657C25.0784 18.504 24.8722 19.771 24.2976 20.8862C23.723 22.0015 22.8092 22.9083 21.6861 23.4776C20.563 24.047 19.2878 24.25 18.042 24.0576C16.7961 23.8653 15.643 23.2874 14.7467 22.4063C13.8503 21.5251 13.2564 20.3855 13.0493 19.1496C12.8423 17.9136 13.0327 16.6443 13.5934 15.5221C14.1541 14.3999 15.0567 13.4819 16.1726 12.8988C17.2886 12.3158 18.5611 12.0972 19.8092 12.2743C21.0824 12.4549 22.2634 13.0376 23.1777 13.9364C24.092 14.8352 24.6911 16.0025 24.8867 17.2657Z" stroke="#002877" stroke-width="3" stroke-linecap="round" stroke-linejoin="round"/>
<path d="M27.0947 10.0012L27.1096 10.0011" stroke="#002877" stroke-width="3" stroke-linecap="round" stroke-linejoin="round"/>
</svg>
