<svg width="91" height="92" viewBox="0 0 91 92" fill="none" xmlns="http://www.w3.org/2000/svg">
<path d="M75.5485 79.3985L75.5098 71.8986C75.4893 67.9204 73.8893 64.1142 71.0618 61.3174C68.2342 58.5206 64.4109 56.9621 60.4327 56.985L30.4332 57.1574C26.455 57.1803 22.6479 58.7826 19.8494 61.6117C17.0509 64.4409 15.4903 68.2653 15.5108 72.2435L15.5495 79.7434" stroke="#BA0000" stroke-width="10" stroke-linecap="round" stroke-linejoin="round"/>
<path d="M45.3555 42.0713C53.6396 42.0237 60.3206 35.2695 60.2778 26.9853C60.2351 18.7012 53.4848 12.0241 45.2007 12.0717C36.9165 12.1194 30.2356 18.8736 30.2783 27.1578C30.3211 35.4419 37.0714 42.119 45.3555 42.0713Z" stroke="#BA0000" stroke-width="10" stroke-linecap="round" stroke-linejoin="round"/>
</svg>
