<svg width="741" height="458" viewBox="0 0 741 458" fill="none" xmlns="http://www.w3.org/2000/svg">
<path d="M0.471213 29.9216C0.396368 16.1146 11.5284 4.86125 25.3353 4.78641L713.325 1.05691C727.132 0.982061 738.386 12.1141 738.46 25.921L740.645 428.915C740.72 442.722 729.588 453.975 715.781 454.05L27.7909 457.78C13.984 457.855 2.73063 446.723 2.65579 432.916L0.471213 29.9216Z" fill="#1E1E1E"/>
<g clip-path="url(#clip0_162_3)">
<path d="M414.205 201.966C413.689 199.952 412.651 198.11 411.195 196.625C409.739 195.14 407.918 194.066 405.914 193.511C398.594 191.766 369.355 191.924 369.355 191.924C369.355 191.924 340.115 192.083 332.816 194.077C330.818 194.654 329.008 195.748 327.569 197.248C326.129 198.749 325.111 200.602 324.617 202.622C323.319 210.048 322.706 217.577 322.784 225.115C322.777 232.71 323.473 240.289 324.862 247.756C325.429 249.708 326.49 251.48 327.942 252.901C329.394 254.323 331.188 255.346 333.151 255.871C340.471 257.787 369.711 257.628 369.711 257.628C369.711 257.628 398.951 257.47 406.25 255.475C408.247 254.898 410.057 253.805 411.497 252.304C412.937 250.804 413.955 248.95 414.449 246.931C415.736 239.561 416.35 232.089 416.283 224.608C416.289 217.013 415.594 209.433 414.205 201.966Z" stroke="#DA0B0B" stroke-width="11" stroke-linecap="round" stroke-linejoin="round"/>
<path d="M360.046 238.81L384.408 224.781L359.896 211.016L360.046 238.81Z" stroke="#DA0B0B" stroke-width="8" stroke-linecap="round" stroke-linejoin="round"/>
</g>
<defs>
<clipPath id="clip0_162_3">
<rect width="102" height="102" fill="white" transform="translate(318.263 175.201) rotate(-0.310589)"/>
</clipPath>
</defs>
</svg>
