<svg width="377" height="228" viewBox="0 0 377 228" fill="none" xmlns="http://www.w3.org/2000/svg">
<path d="M1.21411 26.9938C1.21273 13.1867 12.4045 1.99487 26.2116 1.99622L350.766 2.02804C364.573 2.02939 375.767 13.2234 375.769 27.0305L375.786 200.546C375.787 214.353 364.596 225.545 350.788 225.544L26.2339 225.512C12.4268 225.511 1.23281 214.317 1.23143 200.51L1.21411 26.9938Z" fill="#1E1E1E"/>
<g clip-path="url(#clip0_174_170)">
<path d="M210.621 102.47C210.364 101.475 209.842 100.563 209.107 99.8264C208.373 99.0899 207.451 98.5549 206.435 98.2754C202.725 97.3941 187.885 97.3919 187.885 97.3919C187.885 97.3919 173.045 97.3896 169.335 98.3537C168.32 98.6328 167.398 99.1676 166.664 99.9038C165.929 100.64 165.407 101.552 165.151 102.547C164.473 106.207 164.141 109.921 164.161 113.64C164.137 117.388 164.47 121.129 165.155 124.817C165.437 125.782 165.971 126.659 166.704 127.364C167.437 128.07 168.345 128.579 169.34 128.844C173.05 129.809 187.89 129.812 187.89 129.812C187.89 129.812 202.73 129.814 206.44 128.85C207.455 128.571 208.377 128.036 209.112 127.3C209.846 126.563 210.368 125.652 210.624 124.656C211.297 121.024 211.629 117.339 211.615 113.647C211.638 109.9 211.305 106.158 210.621 102.47Z" stroke="#DA0B0B" stroke-width="3" stroke-linecap="round" stroke-linejoin="round"/>
<path d="M183.036 120.499L195.436 113.644L183.033 106.786L183.036 120.499Z" stroke="#DA0B0B" stroke-width="3" stroke-linecap="round" stroke-linejoin="round"/>
</g>
<defs>
<clipPath id="clip0_174_170">
<rect width="51.7677" height="50.3281" fill="white" transform="matrix(1 0.000150757 0.000155069 1 162 89)"/>
</clipPath>
</defs>
</svg>
